<svg xmlns="http://www.w3.org/2000/svg" width="600" height="500" viewBox="0 0 600 500" role="img" aria-label="Friendly forest dragon illustration">
  <defs><linearGradient id="sky" x2="0" y2="1"><stop stop-color="#d5e4ca"/><stop offset="1" stop-color="#f5edce"/></linearGradient><linearGradient id="scales" x2="1" y2="1"><stop stop-color="#91b777"/><stop offset="1" stop-color="#487752"/></linearGradient></defs>
  <rect width="600" height="500" rx="32" fill="url(#sky)"/>
  <circle cx="447" cy="114" r="65" fill="#fff6d8" opacity=".8"/>
  <path d="M0 310Q100 210 218 290T450 265T600 290V500H0" fill="#b9c9a3"/>
  <path d="M0 380Q145 270 300 365T600 340V500H0" fill="#849b78"/>
  <g fill="#536f55" opacity=".4"><path d="M35 365l40-140 40 140zM480 335l35-155 35 155zM530 360l35-125 35 125z"/></g>
  <ellipse cx="298" cy="423" rx="174" ry="25" fill="#405b42" opacity=".18"/>
  <path d="M369 345Q484 431 503 328Q524 418 463 429Q401 439 349 385" fill="#56835a" stroke="#365b40" stroke-width="5"/>
  <path d="M302 322Q265 157 376 185L388 213L413 225L393 264L410 294L363 337Z" fill="#547b55" stroke="#365b40" stroke-width="5"/>
  <path d="M313 319L376 200M319 311L394 266M328 319L395 294" fill="none" stroke="#9db77b" stroke-width="4"/>
  <ellipse cx="300" cy="350" rx="104" ry="77" fill="url(#scales)" stroke="#365b40" stroke-width="5"/>
  <ellipse cx="272" cy="362" rx="53" ry="62" fill="#ddcf94"/>
  <path d="M236 342h60M230 363h71M235 384h59" stroke="#b0a370" stroke-width="3"/>
  <path d="M196 259Q170 191 196 154L216 198M249 204Q244 141 277 130L277 210" fill="#e7c878" stroke="#8e7842" stroke-width="4"/>
  <path d="M193 214Q229 181 275 211Q316 233 296 279Q285 306 229 300L179 296Q141 292 150 263Q155 245 183 247Z" fill="url(#scales)" stroke="#365b40" stroke-width="5"/>
  <ellipse cx="236" cy="241" rx="12" ry="17" fill="#fff6df"/><ellipse cx="239" cy="244" rx="5" ry="10" fill="#253c2c"/><circle cx="241" cy="240" r="2" fill="white"/>
  <path d="M167 278Q190 291 210 278" fill="none" stroke="#365b40" stroke-width="4" stroke-linecap="round"/>
  <circle cx="165" cy="261" r="3" fill="#365b40"/><ellipse cx="218" cy="270" rx="11" ry="7" fill="#dca88c" opacity=".7"/>
  <path d="M315 293l13-20 14 21M343 308l18-15 9 26M371 334l20-9 3 25" fill="#e5c878"/>
  <path d="M230 382Q183 403 199 420H253M331 381Q382 404 365 421H307" fill="#6d985f" stroke="#365b40" stroke-width="5" stroke-linecap="round"/>
  <path d="M247 321Q205 327 193 352M331 329Q341 351 322 364" fill="none" stroke="#365b40" stroke-width="13" stroke-linecap="round"/>
  <g fill="#f9e7b4"><path d="M100 159l4-13 4 13 13 4-13 4-4 13-4-13-13-4zM440 248l3-10 3 10 10 3-10 3-3 10-3-10-10-3z"/><circle cx="143" cy="111" r="3"/><circle cx="399" cy="155" r="4"/></g>
  <g stroke="#49674b" stroke-width="3"><path d="M73 441v-28M96 454v-28M467 457v-29"/></g><g fill="#ead6a2"><circle cx="73" cy="410" r="9"/><circle cx="96" cy="424" r="7"/><circle cx="467" cy="425" r="8"/></g>
</svg>
