<svg xmlns="http://www.w3.org/2000/svg" viewBox="0 0 64 72" shape-rendering="crispEdges"><style>@keyframes glow{50%{opacity:.3}}.glow{animation:glow 2s ease-in-out infinite}@media(prefers-reduced-motion:reduce){.glow{animation:none}}</style><path class="glow" fill="#e7bd6728" d="M12 12h40v48H12z"/><path fill="#d9a657" d="M24 12h16v6h6v12h6v24h-6v6H18v-6h-6V30h6V18h6z"/><path fill="#f6d792" d="M24 18h10v6H24zm-6 12h8v18h-8z"/><path fill="#9f6c43" d="M34 30h6v6h-6zm-8 12h8v6h-8zm12 6h8v6h-8z"/><path class="glow" fill="#fff2bb" d="M51 4h3v4h4v3h-4v4h-3v-4h-4V8h4zM6 53h3v4h4v3H9v4H6v-4H2v-3h4z"/></svg>
